<mxfile host="app.diagrams.net" agent="Mozilla/5.0 (Windows NT 10.0; Win64; x64) AppleWebKit/537.36 (KHTML, like Gecko) Chrome/139.0.0.0 Safari/537.36" version="27.1.4">
  <diagram name="Deployment System Architecture" id="deployment-system">
    <mxGraphModel dx="872" dy="465" grid="1" gridSize="10" guides="1" tooltips="1" connect="1" arrows="1" fold="1" page="1" pageScale="1" pageWidth="1169" pageHeight="1400" math="0" shadow="0">
      <root>
        <mxCell id="0" />
        <mxCell id="1" parent="0" />
        <mxCell id="title" value="DevOps Deployment System - Complete Architecture" style="text;html=1;strokeColor=none;fillColor=none;align=center;verticalAlign=middle;whiteSpace=wrap;rounded=0;fontSize=20;fontStyle=1;" parent="1" vertex="1">
          <mxGeometry x="475" y="10" width="480" height="30" as="geometry" />
        </mxCell>
        <mxCell id="workflow-title" value="Deployment Workflow" style="text;html=1;strokeColor=none;fillColor=#d5e8d4;align=center;verticalAlign=middle;whiteSpace=wrap;rounded=1;fontSize=16;fontStyle=1;strokeWidth=2;" parent="1" vertex="1">
          <mxGeometry x="500" y="70" width="200" height="30" as="geometry" />
        </mxCell>
        <mxCell id="phase1-title" value="Phase 1: Environment Setup" style="text;html=1;strokeColor=#666666;fillColor=#f0f0f0;align=center;verticalAlign=middle;whiteSpace=wrap;rounded=1;fontSize=12;fontStyle=1;strokeWidth=1;" parent="1" vertex="1">
          <mxGeometry x="480" y="110" width="480" height="20" as="geometry" />
        </mxCell>
        <mxCell id="developer" value="Developer" style="shape=umlActor;verticalLabelPosition=bottom;verticalAlign=top;html=1;outlineConnect=0;fillColor=#dae8fc;strokeColor=#6c8ebf;" parent="1" vertex="1">
          <mxGeometry x="480" y="140" width="30" height="60" as="geometry" />
        </mxCell>
        <mxCell id="scripts-exec" value="run.sh&#xa;Execution" style="rounded=1;whiteSpace=wrap;html=1;fillColor=#f8cecc;strokeColor=#b85450;fontSize=10;" parent="1" vertex="1">
          <mxGeometry x="610" y="150" width="80" height="40" as="geometry" />
        </mxCell>
        <mxCell id="kind-cluster" value="Kind Cluster&#xa;Creation" style="rounded=1;whiteSpace=wrap;html=1;fillColor=#e1d5e7;strokeColor=#9673a6;fontSize=10;" parent="1" vertex="1">
          <mxGeometry x="770" y="150" width="80" height="40" as="geometry" />
        </mxCell>
        <mxCell id="tofu-apply" value="OpenTofu Apply" style="rounded=1;whiteSpace=wrap;html=1;fillColor=#d5e8d4;strokeColor=#82b366;fontSize=10;" parent="1" vertex="1">
          <mxGeometry x="880" y="150" width="80" height="40" as="geometry" />
        </mxCell>
        <mxCell id="iac-namespace-box" value="" style="rounded=1;whiteSpace=wrap;html=1;fillColor=#e6ffe6;strokeColor=#4CAF50;strokeWidth=2;opacity=30;" parent="1" vertex="1">
          <mxGeometry x="475" y="310" width="220" height="140" as="geometry" />
        </mxCell>
        <mxCell id="iac-namespace-title" value="IAC Namespace" style="text;html=1;strokeColor=none;fillColor=#4CAF50;fontColor=white;align=center;verticalAlign=middle;whiteSpace=wrap;rounded=1;fontSize=11;fontStyle=1;" parent="1" vertex="1">
          <mxGeometry x="535" y="320" width="100" height="20" as="geometry" />
        </mxCell>
        <mxCell id="jenkins" value="Jenkins" style="rounded=1;whiteSpace=wrap;html=1;fillColor=#f8cecc;strokeColor=#b85450;fontSize=10;" parent="1" vertex="1">
          <mxGeometry x="485" y="350" width="80" height="40" as="geometry" />
        </mxCell>
        <mxCell id="prometheus" value="Prometheus" style="rounded=1;whiteSpace=wrap;html=1;fillColor=#fff2cc;strokeColor=#d6b656;fontSize=10;" parent="1" vertex="1">
          <mxGeometry x="600" y="350" width="80" height="40" as="geometry" />
        </mxCell>
        <mxCell id="docker-registry" value="Docker&#xa;Registry" style="rounded=1;whiteSpace=wrap;html=1;fillColor=#e1d5e7;strokeColor=#9673a6;fontSize=10;" parent="1" vertex="1">
          <mxGeometry x="600" y="400" width="80" height="40" as="geometry" />
        </mxCell>
        <mxCell id="app-namespace-box" value="" style="rounded=1;whiteSpace=wrap;html=1;fillColor=#e6f3ff;strokeColor=#2196F3;strokeWidth=2;opacity=30;" parent="1" vertex="1">
          <mxGeometry x="740" y="310" width="220" height="140" as="geometry" />
        </mxCell>
        <mxCell id="app-namespace-title" value="APP Namespace" style="text;html=1;strokeColor=none;fillColor=#2196F3;fontColor=white;align=center;verticalAlign=middle;whiteSpace=wrap;rounded=1;fontSize=11;fontStyle=1;" parent="1" vertex="1">
          <mxGeometry x="750" y="320" width="100" height="20" as="geometry" />
        </mxCell>
        <mxCell id="app-empty" value="Initially Empty&#xa;(Deployed by Jenkins)" style="rounded=1;whiteSpace=wrap;html=1;fillColor=#f5f5f5;strokeColor=#cccccc;fontSize=10;fontStyle=2;" parent="1" vertex="1">
          <mxGeometry x="760" y="360" width="180" height="60" as="geometry" />
        </mxCell>
        <mxCell id="pipeline-trigger" value="Jenkins Pipeline&#xa;Trigger" style="rounded=1;whiteSpace=wrap;html=1;fillColor=#f8cecc;strokeColor=#b85450;fontSize=10;" parent="1" vertex="1">
          <mxGeometry x="480" y="550" width="90" height="40" as="geometry" />
        </mxCell>
        <mxCell id="test-stage" value="Test Stage&lt;br&gt;• npm test" style="rounded=1;whiteSpace=wrap;html=1;fillColor=#e1d5e7;strokeColor=#9673a6;fontSize=9;" parent="1" vertex="1">
          <mxGeometry x="620" y="550" width="80" height="40" as="geometry" />
        </mxCell>
        <mxCell id="deploy-stage" value="Deploy Stage&lt;br&gt;• Helm Deploy" style="rounded=1;whiteSpace=wrap;html=1;fillColor=#fff2cc;strokeColor=#d6b656;fontSize=9;" parent="1" vertex="1">
          <mxGeometry x="865" y="550" width="90" height="40" as="geometry" />
        </mxCell>
        <mxCell id="app-deployed-box" value="" style="rounded=1;whiteSpace=wrap;html=1;fillColor=#e6f3ff;strokeColor=#2196F3;strokeWidth=2;opacity=30;" parent="1" vertex="1">
          <mxGeometry x="740" y="620" width="220" height="110" as="geometry" />
        </mxCell>
        <mxCell id="app-deployed-title" value="APP Namespace" style="text;html=1;strokeColor=none;fillColor=#2196F3;fontColor=white;align=center;verticalAlign=middle;whiteSpace=wrap;rounded=1;fontSize=11;fontStyle=1;" parent="1" vertex="1">
          <mxGeometry x="760" y="630" width="180" height="30" as="geometry" />
        </mxCell>
        <mxCell id="service-network" value="&lt;span style=&quot;color: rgb(0, 0, 0);&quot;&gt;Backend App POD&lt;/span&gt;" style="rounded=1;whiteSpace=wrap;html=1;fillColor=#fff2cc;strokeColor=#d6b656;fontSize=9;" parent="1" vertex="1">
          <mxGeometry x="760" y="670" width="80" height="50" as="geometry" />
        </mxCell>
        <mxCell id="prometheus-scraping" value="Prometheus&#xa;Scraping" style="rounded=1;whiteSpace=wrap;html=1;fillColor=#fff2cc;strokeColor=#d6b656;fontSize=10;" parent="1" vertex="1">
          <mxGeometry x="485" y="800" width="80" height="40" as="geometry" />
        </mxCell>
        <mxCell id="grafana-visualization" value="Grafana&#xa;Visualization" style="rounded=1;whiteSpace=wrap;html=1;fillColor=#fff2cc;strokeColor=#d6b656;fontSize=10;" parent="1" vertex="1">
          <mxGeometry x="670" y="800" width="80" height="40" as="geometry" />
        </mxCell>
        <mxCell id="automated-testing" value="Optional Infra&amp;nbsp;&lt;span style=&quot;color: rgb(63, 63, 63); background-color: transparent;&quot;&gt;Testing&lt;/span&gt;&lt;div&gt;test.sh&lt;/div&gt;" style="rounded=1;whiteSpace=wrap;html=1;fillColor=#e1d5e7;strokeColor=#9673a6;fontSize=10;" parent="1" vertex="1">
          <mxGeometry x="630" y="870" width="110" height="30" as="geometry" />
        </mxCell>
        <mxCell id="cleanup" value="Optional Cleanup&#xa;destroy.sh" style="rounded=1;whiteSpace=wrap;html=1;fillColor=#ffcccc;strokeColor=#ff6666;fontSize=10;" parent="1" vertex="1">
          <mxGeometry x="490" y="870" width="120" height="30" as="geometry" />
        </mxCell>
        <mxCell id="flow4" style="edgeStyle=orthogonalEdgeStyle;rounded=0;orthogonalLoop=1;jettySize=auto;html=1;entryX=0;entryY=0.5;entryDx=0;entryDy=0;strokeColor=#2E7D32;strokeWidth=3;" parent="1" source="kind-cluster" target="tofu-apply" edge="1">
          <mxGeometry relative="1" as="geometry" />
        </mxCell>
        <mxCell id="flow5" style="edgeStyle=orthogonalEdgeStyle;rounded=0;orthogonalLoop=1;jettySize=auto;html=1;strokeColor=#1976D2;strokeWidth=2;entryX=0.5;entryY=0;entryDx=0;entryDy=0;" parent="1" source="tofu-apply" target="iac-namespace-box" edge="1">
          <mxGeometry relative="1" as="geometry">
            <mxPoint x="940" y="200" as="sourcePoint" />
            <mxPoint x="590" y="290" as="targetPoint" />
            <Array as="points">
              <mxPoint x="940" y="230" />
              <mxPoint x="585" y="230" />
            </Array>
          </mxGeometry>
        </mxCell>
        <mxCell id="flow6" style="edgeStyle=orthogonalEdgeStyle;rounded=0;orthogonalLoop=1;jettySize=auto;html=1;entryX=0.5;entryY=0;entryDx=0;entryDy=0;strokeColor=#1976D2;strokeWidth=2;" parent="1" source="data-flow4" target="app-namespace-box" edge="1">
          <mxGeometry relative="1" as="geometry">
            <mxPoint x="940" y="200" as="sourcePoint" />
            <mxPoint x="850" y="240" as="targetPoint" />
            <Array as="points">
              <mxPoint x="940" y="250" />
              <mxPoint x="850" y="250" />
            </Array>
          </mxGeometry>
        </mxCell>
        <mxCell id="flow8" style="edgeStyle=orthogonalEdgeStyle;rounded=0;orthogonalLoop=1;jettySize=auto;html=1;entryX=0;entryY=0.5;entryDx=0;entryDy=0;strokeColor=#D32F2F;strokeWidth=2;" parent="1" source="pipeline-trigger" target="test-stage" edge="1">
          <mxGeometry relative="1" as="geometry" />
        </mxCell>
        <mxCell id="flow9" style="edgeStyle=orthogonalEdgeStyle;rounded=0;orthogonalLoop=1;jettySize=auto;html=1;entryX=0;entryY=0.5;entryDx=0;entryDy=0;strokeColor=#D32F2F;strokeWidth=2;" parent="1" source="test-stage" target="build-stage" edge="1">
          <mxGeometry relative="1" as="geometry" />
        </mxCell>
        <mxCell id="flow10" style="edgeStyle=orthogonalEdgeStyle;rounded=0;orthogonalLoop=1;jettySize=auto;html=1;entryX=0;entryY=0.5;entryDx=0;entryDy=0;strokeColor=#D32F2F;strokeWidth=2;" parent="1" source="build-stage" target="deploy-stage" edge="1">
          <mxGeometry relative="1" as="geometry" />
        </mxCell>
        <mxCell id="flow11" style="edgeStyle=orthogonalEdgeStyle;rounded=0;orthogonalLoop=1;jettySize=auto;html=1;strokeColor=#D32F2F;strokeWidth=2;entryX=0.75;entryY=0;entryDx=0;entryDy=0;" parent="1" source="deploy-stage" target="app-deployed-box" edge="1">
          <mxGeometry relative="1" as="geometry">
            <mxPoint x="940" y="580" as="targetPoint" />
            <Array as="points">
              <mxPoint x="905" y="590" />
              <mxPoint x="905" y="590" />
            </Array>
          </mxGeometry>
        </mxCell>
        <mxCell id="flow14" style="edgeStyle=orthogonalEdgeStyle;rounded=0;orthogonalLoop=1;jettySize=auto;html=1;entryX=0;entryY=0.5;entryDx=0;entryDy=0;strokeColor=#FF9800;strokeWidth=2;startArrow=classic;startFill=1;endArrow=none;endFill=0;" parent="1" source="prometheus-scraping" target="grafana-visualization" edge="1">
          <mxGeometry relative="1" as="geometry" />
        </mxCell>
        <mxCell id="5" value="" style="edgeStyle=orthogonalEdgeStyle;rounded=0;orthogonalLoop=1;jettySize=auto;html=1;entryX=0.5;entryY=0;entryDx=0;entryDy=0;strokeColor=#D32F2F;strokeWidth=2;" parent="1" source="jenkins" target="pipeline-trigger" edge="1">
          <mxGeometry relative="1" as="geometry">
            <mxPoint x="530" y="390" as="sourcePoint" />
            <mxPoint x="525" y="550" as="targetPoint" />
            <Array as="points">
              <mxPoint x="525" y="520" />
              <mxPoint x="525" y="520" />
            </Array>
          </mxGeometry>
        </mxCell>
        <mxCell id="data-flow5" value="4" style="ellipse;whiteSpace=wrap;html=1;aspect=fixed;fillColor=#D32F2F;fontColor=white;fontSize=10;fontStyle=1;" parent="1" vertex="1">
          <mxGeometry x="515" y="510" width="20" height="20" as="geometry" />
        </mxCell>
        <mxCell id="grafana" value="Grafana" style="rounded=1;whiteSpace=wrap;html=1;fillColor=#fff2cc;strokeColor=#d6b656;fontSize=10;" parent="1" vertex="1">
          <mxGeometry x="485" y="400" width="80" height="40" as="geometry" />
        </mxCell>
        <mxCell id="build-stage" value="Build Stage&#xa;• Docker Build&#xa;• Kaniko Push" style="rounded=1;whiteSpace=wrap;html=1;fillColor=#d5e8d4;strokeColor=#82b366;fontSize=9;" parent="1" vertex="1">
          <mxGeometry x="750" y="550" width="80" height="40" as="geometry" />
        </mxCell>
        <mxCell id="phase2-title" value="Phase 2: Infrastructure Provisioning" style="text;html=1;strokeColor=#666666;fillColor=#f0f0f0;align=center;verticalAlign=middle;whiteSpace=wrap;rounded=1;fontSize=12;fontStyle=1;strokeWidth=1;" parent="1" vertex="1">
          <mxGeometry x="480" y="260" width="480" height="20" as="geometry" />
        </mxCell>
        <mxCell id="phase3-title" value="Phase 3: CI/CD Pipeline Execution" style="text;html=1;strokeColor=#666666;fillColor=#f0f0f0;align=center;verticalAlign=middle;whiteSpace=wrap;rounded=1;fontSize=12;fontStyle=1;strokeWidth=1;" parent="1" vertex="1">
          <mxGeometry x="480" y="480" width="480" height="20" as="geometry" />
        </mxCell>
        <mxCell id="data-flow4" value="3" style="ellipse;whiteSpace=wrap;html=1;aspect=fixed;fillColor=#1976D2;fontColor=white;fontSize=10;fontStyle=1;" parent="1" vertex="1">
          <mxGeometry x="930" y="200" width="20" height="20" as="geometry" />
        </mxCell>
        <mxCell id="14" value="" style="edgeStyle=orthogonalEdgeStyle;rounded=0;orthogonalLoop=1;jettySize=auto;html=1;strokeColor=#FF9800;strokeWidth=2;startArrow=classic;startFill=1;endArrow=none;endFill=0;exitX=0;exitY=0.5;exitDx=0;exitDy=0;entryX=0.5;entryY=0;entryDx=0;entryDy=0;" parent="1" source="app-deployed-box" target="prometheus-scraping" edge="1">
          <mxGeometry relative="1" as="geometry">
            <mxPoint x="759.9999999999999" y="695" as="sourcePoint" />
            <mxPoint x="525" y="810" as="targetPoint" />
          </mxGeometry>
        </mxCell>
        <mxCell id="data-flow6" value="5" style="ellipse;whiteSpace=wrap;html=1;aspect=fixed;fillColor=#FF9800;fontColor=white;fontSize=10;fontStyle=1;" parent="1" vertex="1">
          <mxGeometry x="515" y="770" width="20" height="20" as="geometry" />
        </mxCell>
        <mxCell id="phase4-title" value="Phase 4: Monitoring &amp; Validation" style="text;html=1;strokeColor=#666666;fillColor=#f0f0f0;align=center;verticalAlign=middle;whiteSpace=wrap;rounded=1;fontSize=12;fontStyle=1;strokeWidth=1;" parent="1" vertex="1">
          <mxGeometry x="480" y="740" width="480" height="20" as="geometry" />
        </mxCell>
        <mxCell id="22" value="" style="edgeStyle=orthogonalEdgeStyle;rounded=0;orthogonalLoop=1;jettySize=auto;html=1;entryX=0;entryY=0.5;entryDx=0;entryDy=0;strokeColor=#2E7D32;strokeWidth=3;" parent="1" source="scripts-exec" target="kind-cluster" edge="1">
          <mxGeometry relative="1" as="geometry">
            <mxPoint x="700" y="170" as="sourcePoint" />
            <mxPoint x="780" y="170" as="targetPoint" />
          </mxGeometry>
        </mxCell>
        <mxCell id="data-flow3" value="2" style="ellipse;whiteSpace=wrap;html=1;aspect=fixed;fillColor=#2E7D32;fontColor=white;fontSize=10;fontStyle=1;" parent="1" vertex="1">
          <mxGeometry x="720" y="160" width="20" height="20" as="geometry" />
        </mxCell>
        <mxCell id="25" value="" style="edgeStyle=orthogonalEdgeStyle;rounded=0;orthogonalLoop=1;jettySize=auto;html=1;strokeColor=#2E7D32;strokeWidth=3;" parent="1" source="developer" target="scripts-exec" edge="1">
          <mxGeometry relative="1" as="geometry">
            <mxPoint x="510" y="170" as="sourcePoint" />
            <mxPoint x="610" y="170" as="targetPoint" />
          </mxGeometry>
        </mxCell>
        <mxCell id="data-flow1" value="1" style="ellipse;whiteSpace=wrap;html=1;aspect=fixed;fillColor=#2E7D32;fontColor=white;fontSize=10;fontStyle=1;" parent="1" vertex="1">
          <mxGeometry x="545" y="160" width="20" height="20" as="geometry" />
        </mxCell>
        <mxCell id="w1SXJAUQH7ym2wg1zclB-25" value="&lt;span style=&quot;color: rgb(0, 0, 0);&quot;&gt;Frontend App POD&lt;/span&gt;" style="rounded=1;whiteSpace=wrap;html=1;fillColor=#fff2cc;strokeColor=#d6b656;fontSize=9;" vertex="1" parent="1">
          <mxGeometry x="860" y="670" width="80" height="50" as="geometry" />
        </mxCell>
      </root>
    </mxGraphModel>
  </diagram>
</mxfile>
